<?xml version="1.0" encoding="utf-8"?>
<!-- Generator: Adobe Illustrator 27.0.0, SVG Export Plug-In . SVG Version: 6.00 Build 0)  -->
<svg version="1.1" id="Calque_1" xmlns="http://www.w3.org/2000/svg" xmlns:xlink="http://www.w3.org/1999/xlink" x="0px" y="0px"
	 viewBox="0 0 3364 800" style="enable-background:new 0 0 3364 800;" xml:space="preserve">
<style type="text/css">
	.st0{fill:#1D1C1B;stroke:#1D1C1B;stroke-width:75;stroke-miterlimit:10;}
	.st1{fill:#1D1C1B;stroke:#1D1C1B;stroke-width:0;stroke-miterlimit:10;}
	.st2{fill:#9B1C1F;stroke:#9B1C1F;stroke-width:35;stroke-miterlimit:10;}
	.st3{fill:#E11F26;stroke:#E11F26;stroke-width:35;stroke-miterlimit:10;}
	.st4{fill:#E11F26;}
</style>
<path class="st0" d="M408.25,756.54L698.81,579.1L408.25,756.54z"/>
<path class="st0" d="M104.89,579.1l303.36,177.44L104.89,579.1z"/>
<path class="st0" d="M104.89,484.02l0,95.08L104.89,484.02z"/>
<path class="st0" d="M698.81,222.36l0,356.74L698.81,222.36z"/>
<path class="st0" d="M104.89,222.36"/>
<path class="st0" d="M408.25,44.92L104.89,222.36L408.25,44.92z"/>
<path class="st0" d="M698.81,222.36L408.25,44.92L698.81,222.36z"/>
<path class="st0" d="M104.89,222.36l0,93.24L104.89,222.36z"/>
<ellipse class="st1" cx="104.89" cy="222.36" rx="36.89" ry="36.92"/>
<ellipse class="st1" cx="104.89" cy="313.14" rx="36.89" ry="36.92"/>
<ellipse class="st1" cx="104.89" cy="479.14" rx="36.89" ry="36.92"/>
<ellipse class="st1" cx="104.89" cy="579.1" rx="36.89" ry="36.92"/>
<ellipse class="st1" cx="408.25" cy="756.54" rx="36.89" ry="36.92"/>
<ellipse class="st1" cx="698.81" cy="579.1" rx="36.89" ry="36.92"/>
<ellipse class="st1" cx="698.81" cy="221.16" rx="36.89" ry="36.92"/>
<ellipse class="st1" cx="408.25" cy="44.92" rx="36.89" ry="36.92"/>
<path class="st2" d="M308.31,746.34l-65.85,0c-5.72,0-11.53-5.57-12.91-12.36L93.63,64.03c-1.17-5.75,2.18-10.44,7.42-10.44l60.43,0
	c5.25,0,10.54,4.69,11.77,10.44l142.82,669.95C317.52,740.78,314.03,746.34,308.31,746.34z"/>
<path class="st2" d="M506.91,746.34l65.85,0c5.72,0,11.53-5.57,12.91-12.36L721.59,64.03c1.17-5.75-2.18-10.44-7.42-10.44l-60.43,0
	c-5.25,0-10.54,4.69-11.77,10.44L499.15,733.98C497.7,740.78,501.2,746.34,506.91,746.34z"/>
<path class="st3" d="M562.41,734.92L371.37,65.04c-1.8-6.3,3.3-11.45,11.33-11.45l49.94,0c8.03,0,16.06,5.15,17.86,11.45
	l190.93,669.88c1.79,6.28-3.3,11.42-11.32,11.42h-49.87C572.22,746.34,564.2,741.21,562.41,734.92z"/>
<g>
	<path class="st3" d="M519.62,508.83H408.07c-6.6,0-12-5.4-12-12v-55.17c0-6.6,5.4-12,12-12h111.55c6.6,0,12,5.4,12,12v55.17
		C531.62,503.43,526.22,508.83,519.62,508.83z"/>
	<path class="st3" d="M296.6,508.83h111.55c6.6,0,12-5.4,12-12v-55.17c0-6.6-5.4-12-12-12H296.6c-6.6,0-12,5.4-12,12v55.17
		C284.6,503.43,290,508.83,296.6,508.83z"/>
</g>
<path class="st3" d="M253.32,734.92L444.35,65.04c1.8-6.3-3.3-11.45-11.33-11.45l-49.94,0c-8.03,0-16.06,5.15-17.86,11.45
	L174.29,734.92c-1.79,6.28,3.3,11.42,11.32,11.42h49.87C243.5,746.34,251.52,741.21,253.32,734.92z"/>
<g>
	<path class="st4" d="M1319.58,474.46v3.71v3.52c0,17.58-8.73,31.71-26.17,42.38c-17.45,10.68-41.15,15.36-71.09,14.06
		c-14.45-0.65-29.75-1.82-45.9-3.52c-16.8-1.69-29.33-5.18-37.6-10.45c-8.27-5.27-12.14-13.18-11.62-23.73
		c-0.39-2.99-0.39-5.92,0-8.79l0.78-8.01c0.39-4.56,1.76-7.62,4.1-9.18s5.66-1.92,9.96-1.07c4.3,0.85,8.69,2.12,13.18,3.81
		c4.49,1.69,10.16,3.71,16.99,6.05s12.99,3.97,18.46,4.88c6.64,1.3,15.88,1.95,27.73,1.95c26.04,0,40.95-5.6,44.73-16.8
		c-1.95-2.86-6.77-6.18-14.45-9.96c-3.52-1.43-9.9-3.32-19.14-5.66c-16.15-4.17-24.29-6.25-24.41-6.25
		c-8.2-1.95-15.17-3.74-20.9-5.37c-5.73-1.63-12.11-3.97-19.14-7.03c-7.03-3.06-12.76-6.38-17.19-9.96
		c-4.43-3.58-8.24-8.11-11.43-13.57c-3.19-5.47-4.98-11.52-5.37-18.16c-0.78-3.12-1.17-6.57-1.17-10.35v-3.71v-3.12
		c0-16.14,8.23-29.1,24.71-38.87c16.47-9.77,38.9-14.65,67.29-14.65c4.82,0,12.56,0.26,23.24,0.78c10.94,1.3,20.05,2.73,27.34,4.3
		c7.29,1.56,14.09,3.68,20.41,6.35c6.31,2.67,10.9,6.05,13.77,10.16c2.86,4.1,4.1,9.02,3.71,14.75c0.52,3.26,0.39,6.32-0.39,9.18
		l-1.76,8.01c-1.04,4.82-3,8.08-5.86,9.77c-2.87,1.69-6.71,2.02-11.52,0.98c-4.82-1.04-9.74-2.51-14.75-4.39
		c-5.01-1.89-11.2-4.07-18.55-6.54c-7.36-2.47-14.03-4.17-20.02-5.08c-1.56-0.26-4.88-0.39-9.96-0.39
		c-23.96,0-37.83,4.69-41.6,14.06c5.21,7.94,18.95,13.67,41.21,17.19c11.2,2.08,22.39,4.62,33.59,7.62
		c19.01,5.6,33.27,12.53,42.77,20.8c9.5,8.27,14.45,18.26,14.84,29.98C1319.19,467.24,1319.58,470.69,1319.58,474.46z"/>
	<path class="st4" d="M1471.57,488.92c2.99-0.78,5.4-0.52,7.23,0.78c1.82,1.3,2.73,3.58,2.73,6.84v33.98c0,3.12-1.5,5.15-4.49,6.05
		l-4.3,1.56c-13.28,4.03-27.15,6.05-41.6,6.05c-13.54,0-25.36-1.89-35.45-5.66c-10.09-3.78-17.94-8.4-23.54-13.87
		c-5.6-5.47-10.09-12.04-13.48-19.73c-3.39-7.68-5.57-14.71-6.54-21.09c-0.98-6.38-1.46-13.09-1.46-20.12V381.3h-11.91
		c-3.65,0-6.58-1.07-8.79-3.22c-2.22-2.15-3.32-5.04-3.32-8.69V343.8c0-3.77,1.2-6.87,3.61-9.28c2.41-2.41,5.5-3.61,9.28-3.61h12.7
		v-25.59c0-5.99,1.86-10.81,5.57-14.45c3.71-3.64,8.56-5.47,14.55-5.47h24.02c5.99,0,10.81,1.83,14.45,5.47
		c3.64,3.65,5.47,8.47,5.47,14.45v25.59h35.16c5.99,0,10.84,1.83,14.55,5.47c3.71,3.65,5.57,8.47,5.57,14.45v10.55
		c0,5.99-1.86,10.81-5.57,14.45c-3.71,3.65-8.56,5.47-14.55,5.47h-35.16v73.24c0,14.33,1.5,24.15,4.49,29.49
		c3.38,7.29,10.16,10.94,20.31,10.94c6.77,0,13.6-1.1,20.51-3.32L1471.57,488.92z"/>
	<path class="st4" d="M1622.18,325.63h7.23c4.82,0,7.23,2.41,7.23,7.23v45.7c0,4.82-2.41,7.23-7.23,7.23h-7.23
		c-17.06,0-30.93,5.54-41.6,16.6c-10.68,11.07-16.02,24.02-16.02,38.87c0,9.77-0.07,24.32-0.2,43.65
		c-0.13,19.34-0.2,33.76-0.2,43.26v5.08c0,3.52-1.69,5.27-5.08,5.27h-40.43c-5.99,0-10.84-1.82-14.55-5.47
		c-3.71-3.64-5.57-8.46-5.57-14.45V351.42c0-5.99,1.86-10.84,5.57-14.55s8.56-5.57,14.55-5.57h25.98c2.86,0,4.75,1.37,5.66,4.1
		l1.17,4.3c0.13,0.65,0.91,4.36,2.34,11.13C1572.83,334.03,1595.62,325.63,1622.18,325.63z"/>
	<path class="st4" d="M1874.95,528.17c0.26,3.52-0.56,6.67-2.44,9.47c-1.89,2.8-4.53,4.59-7.91,5.37l-11.52,2.73
		c-17.45,3.52-32.06,3.61-43.85,0.29c-11.79-3.32-22.1-9.41-30.96-18.26c-17.97,11.2-38.09,16.8-60.35,16.8
		c-29.04,0-51.04-6.18-66.02-18.55c-14.97-12.37-22.46-28.58-22.46-48.63c0-20.44,8.59-37.56,25.78-51.37
		c17.19-13.8,40.3-20.7,69.34-20.7c18.1,0,35.87,2.8,53.32,8.4c-1.04-7.68-3.71-15.04-8.01-22.07
		c-7.68-10.67-20.77-16.02-39.26-16.02c-14.45,0-30.6,3-48.44,8.98c-12.37,2.61-20.38,3.52-24.02,2.73
		c-5.08-1.43-7.68-5.47-7.81-12.11l-0.59-19.92c0-5.34,2.93-10.06,8.79-14.16s13.38-7.23,22.56-9.38s18.46-3.77,27.83-4.88
		c9.38-1.1,18.49-1.66,27.34-1.66c52.08,0,85.28,19.47,99.61,58.4c3.78,11.33,6.45,27.34,8.01,48.05
		c0.13,5.73,0.03,13.64-0.29,23.73c-0.33,10.09-0.49,16.7-0.49,19.82c0,5.21,0.13,8.98,0.39,11.33l0.39,2.73l0.39,3.71
		c1.69-0.39,4.26-0.91,7.71-1.56c3.45-0.65,6.51-1.24,9.18-1.76c2.67-0.52,4.79-1.04,6.35-1.56c0.52-0.26,1.43-0.39,2.73-0.39
		c1.04,0.52,1.56,1.17,1.56,1.95c0.52,1.04,0.78,1.95,0.78,2.73L1874.95,528.17z M1724.56,496.53c11.59,0,22.66-3.64,33.2-10.94
		c10.55-7.29,17.25-15.62,20.12-25c-14.45-7.03-28.71-10.55-42.77-10.55c-12.24,0-21.78,2.22-28.61,6.64
		c-6.84,4.43-10.25,10.61-10.25,18.55c0,7.42,2.25,12.83,6.74,16.21C1707.47,494.84,1714.66,496.53,1724.56,496.53z"/>
	<path class="st4" d="M1980.64,543.8c-11.98,0-22.88-1.21-32.71-3.61c-9.83-2.41-18.1-5.57-24.8-9.47
		c-6.71-3.91-12.57-8.69-17.58-14.36c-5.01-5.66-8.98-11.43-11.91-17.29s-5.27-12.27-7.03-19.24c-1.76-6.96-2.93-13.28-3.52-18.95
		s-0.88-11.62-0.88-17.87v-91.6c0-5.99,1.82-10.84,5.47-14.55c3.64-3.71,8.46-5.57,14.45-5.57h25.59c5.99,0,10.84,1.86,14.55,5.57
		s5.57,8.56,5.57,14.55v88.67c0,16.28,2.67,28.84,8.01,37.7c5.86,10.16,16.14,15.23,30.86,15.23c15.88,0,28.32-5.4,37.3-16.21
		c8.98-10.81,13.48-23.7,13.48-38.67c0-42.97,0.26-75.26,0.78-96.88v-5.08c0-1.43,0.46-2.6,1.37-3.52c0.91-0.91,2.15-1.37,3.71-1.37
		h40.04c5.99,0,10.84,1.86,14.55,5.57s5.57,8.56,5.57,14.55V518.6c0,5.99-1.86,10.81-5.57,14.45c-3.71,3.65-8.56,5.47-14.55,5.47
		h-26.37c-3.12,0-4.88-1.5-5.27-4.49l-0.78-3.91c-1.04-4.3-1.69-7.23-1.95-8.79C2030.12,536.31,2007.33,543.8,1980.64,543.8z"/>
	<path class="st4" d="M2267.2,524.85c-1.43,4.04-3.91,7.32-7.42,9.86s-7.42,3.81-11.72,3.81h-37.3c-4.17,0-8.01-1.2-11.52-3.61
		c-3.52-2.41-5.93-5.63-7.23-9.67l-61.91-167.58c-3-7.94-2.77-14.39,0.68-19.34c3.45-4.95,9.47-7.42,18.07-7.42h29.1
		c4.17,0,8.04,1.3,11.62,3.91c3.58,2.61,6.02,5.99,7.32,10.16l33.59,103.91l33.2-103.91c1.43-4.17,3.87-7.55,7.32-10.16
		c3.45-2.6,7.39-3.91,11.82-3.91h38.87c4.17,0,8.01,1.3,11.52,3.91c3.52,2.61,5.92,5.99,7.23,10.16l33.59,103.91l33.2-103.91
		c1.43-4.17,3.87-7.55,7.32-10.16c3.45-2.6,7.39-3.91,11.82-3.91h28.91c8.59,0,14.62,2.48,18.07,7.42
		c3.45,4.95,3.68,11.4,0.68,19.34l-61.52,167.58c-1.3,4.04-3.71,7.26-7.23,9.67c-3.52,2.41-7.42,3.61-11.72,3.61h-37.5
		c-4.43,0-8.4-1.27-11.91-3.81s-5.99-5.83-7.42-9.86l-34.77-102.73L2267.2,524.85z"/>
	<path class="st4" d="M2501.31,375.05c6.18-9.63,13.87-18.07,23.05-25.29s20.83-13.05,34.96-17.48c14.13-4.42,29.91-6.64,47.36-6.64
		c17.45,0,33.23,2.25,47.36,6.74c14.13,4.49,25.71,10.35,34.77,17.58c9.05,7.23,16.67,15.66,22.85,25.29
		c6.18,9.64,10.58,19.37,13.18,29.2c2.6,9.83,3.91,19.89,3.91,30.18c0,10.16-1.3,20.18-3.91,30.08c-2.61,9.9-7,19.7-13.18,29.39
		c-6.19,9.7-13.8,18.2-22.85,25.49c-9.05,7.29-20.64,13.22-34.77,17.77c-14.13,4.56-29.92,6.84-47.36,6.84
		c-17.45,0-33.27-2.25-47.46-6.74c-14.19-4.49-25.88-10.38-35.06-17.68c-9.18-7.29-16.86-15.79-23.05-25.49
		c-6.19-9.7-10.58-19.5-13.18-29.39c-2.61-9.89-3.91-19.99-3.91-30.27c0-10.28,1.33-20.38,4-30.27
		C2490.7,394.45,2495.13,384.69,2501.31,375.05z M2647.8,393.02c-9.44-10.94-23.41-16.41-41.89-16.41
		c-17.84,0-31.48,5.57-40.92,16.7c-9.44,11.13-14.16,24.9-14.16,41.31c0,16.67,4.82,30.63,14.45,41.89
		c9.63,11.26,23.57,16.89,41.8,16.89c17.97,0,31.61-5.63,40.92-16.89c9.31-11.26,13.96-25.23,13.96-41.89
		C2661.96,417.82,2657.24,403.96,2647.8,393.02z"/>
	<path class="st4" d="M2877.81,325.63h7.23c4.82,0,7.23,2.41,7.23,7.23v45.7c0,4.82-2.41,7.23-7.23,7.23h-7.23
		c-17.06,0-30.93,5.54-41.6,16.6c-10.68,11.07-16.02,24.02-16.02,38.87c0,9.77-0.07,24.32-0.2,43.65
		c-0.13,19.34-0.2,33.76-0.2,43.26v5.08c0,3.52-1.69,5.27-5.08,5.27h-40.43c-5.99,0-10.84-1.82-14.55-5.47
		c-3.71-3.64-5.57-8.46-5.57-14.45V351.42c0-5.99,1.86-10.84,5.57-14.55s8.56-5.57,14.55-5.57h25.98c2.86,0,4.75,1.37,5.66,4.1
		l1.17,4.3c0.13,0.65,0.91,4.36,2.34,11.13C2828.46,334.03,2851.25,325.63,2877.81,325.63z"/>
	<path class="st4" d="M2953.82,233.64c5.99,0,10.81,1.86,14.45,5.57c3.64,3.71,5.47,8.56,5.47,14.55V518.6
		c0,5.99-1.83,10.81-5.47,14.45c-3.65,3.65-8.47,5.47-14.45,5.47h-25.59c-5.99,0-10.84-1.82-14.55-5.47
		c-3.71-3.64-5.57-8.46-5.57-14.45V253.76c0-5.99,1.86-10.84,5.57-14.55s8.56-5.57,14.55-5.57H2953.82z"/>
	<path class="st4" d="M3111.27,544.58c-16.28,0-30.99-2.51-44.14-7.52c-13.15-5.01-23.7-11.36-31.64-19.04
		c-7.94-7.68-14.58-16.53-19.92-26.56c-5.34-10.03-9.05-19.66-11.13-28.91c-2.08-9.24-3.12-18.29-3.12-27.15
		c0-8.98,1.07-18.13,3.22-27.44c2.15-9.31,5.96-19.01,11.43-29.1c5.47-10.09,12.27-18.98,20.41-26.66
		c8.14-7.68,18.81-14.03,32.03-19.04c13.21-5.01,28.03-7.52,44.43-7.52c20.96,0,39.78,4.69,56.45,14.06v-85.94
		c0-5.99,1.82-10.84,5.47-14.55c3.64-3.71,8.46-5.57,14.45-5.57h25.2c5.99,0,10.84,1.86,14.55,5.57s5.57,8.56,5.57,14.55v217.97
		c0,10.68,0.13,17.32,0.39,19.92c14.58-2.21,24.28-4.03,29.1-5.47c0.26,0,0.68-0.06,1.27-0.2c0.59-0.13,0.94-0.2,1.07-0.2h0.59
		c0.78,0,1.43,0.13,1.95,0.39l1.17,1.56v0.39c0,0.13,0.06,0.49,0.2,1.07c0.13,0.59,0.2,1.01,0.2,1.27l2.34,35.16
		c0.26,3.78-0.59,7.06-2.54,9.86c-1.95,2.8-4.69,4.59-8.2,5.37l-11.52,2.93c-32.29,5.99-57.36-0.2-75.2-18.55
		c-8.2,7.03-17.25,12.01-27.15,14.94C3138.29,543.12,3125.98,544.58,3111.27,544.58z M3119.67,494.19c16.8,0,29.65-5.89,38.57-17.68
		c8.92-11.78,13.38-25.94,13.38-42.48c0-16.41-4.49-30.14-13.48-41.21c-8.98-11.07-22.07-16.6-39.26-16.6
		c-16.15,0-28.65,5.8-37.5,17.38c-8.86,11.59-13.28,25.39-13.28,41.41c0,16.15,4.46,30.05,13.38,41.7
		C3090.4,488.36,3103.13,494.19,3119.67,494.19z"/>
</g>
<g>
	<path class="st4" d="M1023.38,447.11H909.71l-25.98,78.47c-1.56,4.64-4,8.32-7.32,11.05s-7,4.1-11.04,4.1h-24.8
		c-9.12,0-15.37-3.23-18.75-9.68c-3.39-6.46-3.26-15.06,0.39-25.83l108.01-320.08c1.56-4.63,4-8.32,7.32-11.05s7-4.1,11.04-4.1
		h36.33c4.03,0,7.71,1.37,11.04,4.1s5.76,6.42,7.32,11.05l108.01,320.08c3.64,10.76,3.77,19.37,0.39,25.83
		c-3.39,6.46-9.64,9.68-18.75,9.68h-25.2c-4.04,0-7.71-1.37-11.04-4.1s-5.76-6.41-7.32-11.05L1023.38,447.11z M931.39,382.05h70.7
		l-35.55-107.77L931.39,382.05z"/>
</g>
</svg>
