<?xml version="1.0" encoding="utf-8"?>
<!-- Generator: Adobe Illustrator 26.0.1, SVG Export Plug-In . SVG Version: 6.00 Build 0)  -->
<svg version="1.1" xmlns="http://www.w3.org/2000/svg" xmlns:xlink="http://www.w3.org/1999/xlink" x="0px" y="0px"
	 viewBox="0 0 800 800" style="enable-background:new 0 0 800 800;" xml:space="preserve">
<style type="text/css">
	.st0{display:none;fill:#FFFFFF;}
	.st1{stroke:#000000;stroke-width:75;stroke-miterlimit:10;}
	.st2{stroke:#000000;stroke-width:0;stroke-miterlimit:10;}
	.st3{display:none;fill:#9C1006;stroke:#9C1006;stroke-width:35;stroke-miterlimit:10;}
	.st4{fill:#9C1006;stroke:#9C1006;stroke-width:35;stroke-miterlimit:10;}
	.st5{fill:#E30613;stroke:#E30613;stroke-width:35;stroke-miterlimit:10;}
</style>
<g id="Calque_1">
	<polygon class="st0" points="680.28,558.47 680.28,238.52 405.05,78.54 129.82,238.52 129.82,558.47 405.05,718.44 	"/>
	<path class="st1" d="M400.65,760.3l294.14-179.3L400.65,760.3z"/>
	<path class="st1" d="M93.54,581.01l307.1,179.3L93.54,581.01z"/>
	<path class="st1" d="M93.54,484.93l0,96.08L93.54,484.93z"/>
	<path class="st1" d="M694.79,220.53v360.47V220.53z"/>
	<path class="st1" d="M93.54,220.53"/>
	<path class="st1" d="M400.65,41.24l-307.1,179.3L400.65,41.24z"/>
	<path class="st1" d="M694.79,220.53L400.65,41.24L694.79,220.53z"/>
	<path class="st1" d="M93.54,220.53l0,94.21L93.54,220.53z"/>
	<ellipse class="st2" cx="93.54" cy="220.53" rx="37.35" ry="37.31"/>
	<ellipse class="st2" cx="93.54" cy="312.26" rx="37.35" ry="37.31"/>
	<ellipse class="st2" cx="93.54" cy="480" rx="37.35" ry="37.31"/>
	<ellipse class="st2" cx="93.54" cy="581" rx="37.35" ry="37.31"/>
	<ellipse class="st2" cx="400.65" cy="760.3" rx="37.35" ry="37.31"/>
	<ellipse class="st2" cx="694.79" cy="581.01" rx="37.35" ry="37.31"/>
	<ellipse class="st2" cx="694.79" cy="219.32" rx="37.35" ry="37.31"/>
	<ellipse class="st2" cx="400.65" cy="41.24" rx="37.35" ry="37.31"/>
</g>
<g id="Calque_3">
	<path class="st3" d="M281.77,745.55l35.27,9.45c6.38,1.71,12.99-2.11,14.7-8.49l87.9-328.04c1.71-6.38-2.11-12.99-8.49-14.7
		l-35.27-9.45c-6.38-1.71-12.99,2.11-14.7,8.49l-87.9,328.04C271.57,737.22,275.39,743.84,281.77,745.55z"/>
	<path class="st4" d="M299.47,750l-66.67,0c-5.79,0-11.67-5.63-13.07-12.49L82.14,60.55C80.96,54.74,84.35,50,89.66,50l61.18,0
		c5.31,0,10.67,4.74,11.91,10.55l144.58,676.96C308.8,744.37,305.26,750,299.47,750z"/>
	<path class="st4" d="M500.53,750l66.67,0c5.79,0,11.67-5.63,13.07-12.49l137.6-676.96c1.18-5.81-2.2-10.55-7.52-10.55l-61.18,0
		c-5.31,0-10.67,4.74-11.91,10.55L492.67,737.51C491.2,744.37,494.74,750,500.53,750z"/>
</g>
<g id="Calque_2">
	<path class="st5" d="M556.7,738.46L363.31,61.57C361.49,55.21,366.65,50,374.78,50l50.56,0c8.13,0,16.26,5.21,18.08,11.57
		L636.7,738.46c1.81,6.35-3.34,11.54-11.46,11.54h-50.49C566.64,750,558.52,744.81,556.7,738.46z"/>
	<g>
		<path class="st5" d="M513.54,510H400.31c-6.6,0-12-5.4-12-12v-56c0-6.6,5.4-12,12-12h113.22c6.6,0,12,5.4,12,12v56
			C525.54,504.6,520.14,510,513.54,510z"/>
		<path class="st5" d="M287.46,510h113.22c6.6,0,12-5.4,12-12v-56c0-6.6-5.4-12-12-12H287.46c-6.6,0-12,5.4-12,12v56
			C275.46,504.6,280.86,510,287.46,510z"/>
	</g>
	<path class="st5" d="M243.8,738.46l193.4-676.89c1.82-6.36-3.34-11.57-11.47-11.57l-50.56,0c-8.13,0-16.26,5.21-18.08,11.57
		L163.8,738.46c-1.81,6.35,3.34,11.54,11.46,11.54h50.49C233.86,750,241.98,744.81,243.8,738.46z"/>
</g>
</svg>
