<?xml version="1.0" encoding="utf-8"?>
<!-- Generator: Adobe Illustrator 26.0.1, SVG Export Plug-In . SVG Version: 6.00 Build 0)  -->
<svg version="1.1" xmlns="http://www.w3.org/2000/svg" xmlns:xlink="http://www.w3.org/1999/xlink" x="0px" y="0px"
	 viewBox="0 0 160 160" style="enable-background:new 0 0 160 160;" xml:space="preserve">
<style type="text/css">
	.st0{fill:#706F6F;}
	.st1{fill:#B2B2B2;}
</style>
<g id="Calque_1">
	<rect class="st0" width="10" height="10"/>
	<rect x="0" y="10" class="st1" width="10" height="10"/>
	<rect y="20" class="st0" width="10" height="10"/>
	<rect x="0" y="30" class="st1" width="10" height="10"/>
	<rect x="0" y="40" class="st0" width="10" height="10"/>
	<rect y="50" class="st1" width="10" height="10"/>
	<rect x="0" y="60" class="st0" width="10" height="10"/>
	<rect x="0" y="70" class="st1" width="10" height="10"/>
	<rect x="0" y="80" class="st0" width="10" height="10"/>
	<rect x="0" y="90" class="st1" width="10" height="10"/>
	<rect x="0" y="100" class="st0" width="10" height="10"/>
	<rect x="0" y="110" class="st1" width="10" height="10"/>
	<rect x="0" y="120" class="st0" width="10" height="10"/>
	<rect x="0" y="130" class="st1" width="10" height="10"/>
	<rect x="0" y="140" class="st0" width="10" height="10"/>
	<rect y="150" class="st1" width="10" height="10"/>
	<rect x="10" y="150" class="st0" width="10" height="10"/>
	<rect x="10" class="st1" width="10" height="10"/>
	<rect x="10" y="10" class="st0" width="10" height="10"/>
	<rect x="10" y="20" class="st1" width="10" height="10"/>
	<rect x="10" y="30" class="st0" width="10" height="10"/>
	<rect x="10" y="40" class="st1" width="10" height="10"/>
	<rect x="10" y="50" class="st0" width="10" height="10"/>
	<rect x="10" y="60" class="st1" width="10" height="10"/>
	<rect x="10" y="70" class="st0" width="10" height="10"/>
	<rect x="10" y="80" class="st1" width="10" height="10"/>
	<rect x="10" y="90" class="st0" width="10" height="10"/>
	<rect x="10" y="100" class="st1" width="10" height="10"/>
	<rect x="10" y="110" class="st0" width="10" height="10"/>
	<rect x="10" y="120" class="st1" width="10" height="10"/>
	<rect x="10" y="130" class="st0" width="10" height="10"/>
	<rect x="10" y="140" class="st1" width="10" height="10"/>
	<rect x="20" y="0" class="st0" width="10" height="10"/>
	<rect x="20" y="10" class="st1" width="10" height="10"/>
	<rect x="20" y="20" class="st0" width="10" height="10"/>
	<rect x="20" y="30" class="st1" width="10" height="10"/>
	<rect x="20" y="40" class="st0" width="10" height="10"/>
	<rect x="20" y="50" class="st1" width="10" height="10"/>
	<rect x="20" y="60" class="st0" width="10" height="10"/>
	<rect x="20" y="70" class="st1" width="10" height="10"/>
	<rect x="20" y="80" class="st0" width="10" height="10"/>
	<rect x="20" y="90" class="st1" width="10" height="10"/>
	<rect x="20" y="100" class="st0" width="10" height="10"/>
	<rect x="20" y="110" class="st1" width="10" height="10"/>
	<rect x="20" y="120" class="st0" width="10" height="10"/>
	<rect x="20" y="130" class="st1" width="10" height="10"/>
	<rect x="20" y="140" class="st0" width="10" height="10"/>
	<rect x="20" y="150" class="st1" width="10" height="10"/>
	<rect x="30" y="150" class="st0" width="10" height="10"/>
	<rect x="30" y="0" class="st1" width="10" height="10"/>
	<rect x="30" y="10" class="st0" width="10" height="10"/>
	<rect x="30" y="20" class="st1" width="10" height="10"/>
	<rect x="30" y="30" class="st0" width="10" height="10"/>
	<rect x="30" y="40" class="st1" width="10" height="10"/>
	<rect x="30" y="50" class="st0" width="10" height="10"/>
	<rect x="30" y="60" class="st1" width="10" height="10"/>
	<rect x="30" y="70" class="st0" width="10" height="10"/>
	<rect x="30" y="80" class="st1" width="10" height="10"/>
	<rect x="30" y="90" class="st0" width="10" height="10"/>
	<rect x="30" y="100" class="st1" width="10" height="10"/>
	<rect x="30" y="110" class="st0" width="10" height="10"/>
	<rect x="30" y="120" class="st1" width="10" height="10"/>
	<rect x="30" y="130" class="st0" width="10" height="10"/>
	<rect x="30" y="140" class="st1" width="10" height="10"/>
	<rect x="40" class="st0" width="10" height="10"/>
	<rect x="40" y="10" class="st1" width="10" height="10"/>
	<rect x="40" y="20" class="st0" width="10" height="10"/>
	<rect x="40" y="30" class="st1" width="10" height="10"/>
	<rect x="40" y="40" class="st0" width="10" height="10"/>
	<rect x="40" y="50" class="st1" width="10" height="10"/>
	<rect x="40" y="60" class="st0" width="10" height="10"/>
	<rect x="40" y="70" class="st1" width="10" height="10"/>
	<rect x="40" y="80" class="st0" width="10" height="10"/>
	<rect x="40" y="90" class="st1" width="10" height="10"/>
	<rect x="40" y="100" class="st0" width="10" height="10"/>
	<rect x="40" y="110" class="st1" width="10" height="10"/>
	<rect x="40" y="120" class="st0" width="10" height="10"/>
	<rect x="40" y="130" class="st1" width="10" height="10"/>
	<rect x="40" y="140" class="st0" width="10" height="10"/>
	<rect x="40" y="150" class="st1" width="10" height="10"/>
	<rect x="50" y="150" class="st0" width="10" height="10"/>
	<rect x="50" class="st1" width="10" height="10"/>
	<rect x="50" y="10" class="st0" width="10" height="10"/>
	<rect x="50" y="20" class="st1" width="10" height="10"/>
	<rect x="50" y="30" class="st0" width="10" height="10"/>
	<rect x="50" y="40" class="st1" width="10" height="10"/>
	<rect x="50" y="50" class="st0" width="10" height="10"/>
	<rect x="50" y="60" class="st1" width="10" height="10"/>
	<rect x="50" y="70" class="st0" width="10" height="10"/>
	<rect x="50" y="80" class="st1" width="10" height="10"/>
	<rect x="50" y="90" class="st0" width="10" height="10"/>
	<rect x="50" y="100" class="st1" width="10" height="10"/>
	<rect x="50" y="110" class="st0" width="10" height="10"/>
	<rect x="50" y="120" class="st1" width="10" height="10"/>
	<rect x="50" y="130" class="st0" width="10" height="10"/>
	<rect x="50" y="140" class="st1" width="10" height="10"/>
	<rect x="60" y="0" class="st0" width="10" height="10"/>
	<rect x="60" y="10" class="st1" width="10" height="10"/>
	<rect x="60" y="20" class="st0" width="10" height="10"/>
	<rect x="60" y="30" class="st1" width="10" height="10"/>
	<rect x="60" y="40" class="st0" width="10" height="10"/>
	<rect x="60" y="50" class="st1" width="10" height="10"/>
	<rect x="60" y="60" class="st0" width="10" height="10"/>
	<rect x="60" y="70" class="st1" width="10" height="10"/>
	<rect x="60" y="80" class="st0" width="10" height="10"/>
	<rect x="60" y="90" class="st1" width="10" height="10"/>
	<rect x="60" y="100" class="st0" width="10" height="10"/>
	<rect x="60" y="110" class="st1" width="10" height="10"/>
	<rect x="60" y="120" class="st0" width="10" height="10"/>
	<rect x="60" y="130" class="st1" width="10" height="10"/>
	<rect x="60" y="140" class="st0" width="10" height="10"/>
	<rect x="60" y="150" class="st1" width="10" height="10"/>
	<rect x="70" y="150" class="st0" width="10" height="10"/>
	<rect x="70" y="0" class="st1" width="10" height="10"/>
	<rect x="70" y="10" class="st0" width="10" height="10"/>
	<rect x="70" y="20" class="st1" width="10" height="10"/>
	<rect x="70" y="30" class="st0" width="10" height="10"/>
	<rect x="70" y="40" class="st1" width="10" height="10"/>
	<rect x="70" y="50" class="st0" width="10" height="10"/>
	<rect x="70" y="60" class="st1" width="10" height="10"/>
	<rect x="70" y="70" class="st0" width="10" height="10"/>
	<rect x="70" y="80" class="st1" width="10" height="10"/>
	<rect x="70" y="90" class="st0" width="10" height="10"/>
	<rect x="70" y="100" class="st1" width="10" height="10"/>
	<rect x="70" y="110" class="st0" width="10" height="10"/>
	<rect x="70" y="120" class="st1" width="10" height="10"/>
	<rect x="70" y="130" class="st0" width="10" height="10"/>
	<rect x="70" y="140" class="st1" width="10" height="10"/>
	<rect x="80" y="0.22" class="st0" width="10" height="10"/>
	<rect x="80" y="10.22" class="st1" width="10" height="10"/>
	<rect x="80" y="20.22" class="st0" width="10" height="10"/>
	<rect x="80" y="30.22" class="st1" width="10" height="10"/>
	<rect x="80" y="40.22" class="st0" width="10" height="10"/>
	<rect x="80" y="50.22" class="st1" width="10" height="10"/>
	<rect x="80" y="60.22" class="st0" width="10" height="10"/>
	<rect x="80" y="70.22" class="st1" width="10" height="10"/>
	<rect x="80" y="80.22" class="st0" width="10" height="10"/>
	<rect x="80" y="90.22" class="st1" width="10" height="10"/>
	<rect x="80" y="100.22" class="st0" width="10" height="10"/>
	<rect x="80" y="110.22" class="st1" width="10" height="10"/>
	<rect x="80" y="120.22" class="st0" width="10" height="10"/>
	<rect x="80" y="130.22" class="st1" width="10" height="10"/>
	<rect x="80" y="140.22" class="st0" width="10" height="10"/>
	<rect x="80" y="150.22" class="st1" width="10" height="10"/>
	<rect x="90" y="150.22" class="st0" width="10" height="10"/>
	<rect x="90" y="0.22" class="st1" width="10" height="10"/>
	<rect x="90" y="10.22" class="st0" width="10" height="10"/>
	<rect x="90" y="20.22" class="st1" width="10" height="10"/>
	<rect x="90" y="30.22" class="st0" width="10" height="10"/>
	<rect x="90" y="40.22" class="st1" width="10" height="10"/>
	<rect x="90" y="50.22" class="st0" width="10" height="10"/>
	<rect x="90" y="60.22" class="st1" width="10" height="10"/>
	<rect x="90" y="70.22" class="st0" width="10" height="10"/>
	<rect x="90" y="80.22" class="st1" width="10" height="10"/>
	<rect x="90" y="90.22" class="st0" width="10" height="10"/>
	<rect x="90" y="100.22" class="st1" width="10" height="10"/>
	<rect x="90" y="110.22" class="st0" width="10" height="10"/>
	<rect x="90" y="120.22" class="st1" width="10" height="10"/>
	<rect x="90" y="130.22" class="st0" width="10" height="10"/>
	<rect x="90" y="140.22" class="st1" width="10" height="10"/>
	<rect x="100" y="0.22" class="st0" width="10" height="10"/>
	<rect x="100" y="10.22" class="st1" width="10" height="10"/>
	<rect x="100" y="20.22" class="st0" width="10" height="10"/>
	<rect x="100" y="30.22" class="st1" width="10" height="10"/>
	<rect x="100" y="40.22" class="st0" width="10" height="10"/>
	<rect x="100" y="50.22" class="st1" width="10" height="10"/>
	<rect x="100" y="60.22" class="st0" width="10" height="10"/>
	<rect x="100" y="70.22" class="st1" width="10" height="10"/>
	<rect x="100" y="80.22" class="st0" width="10" height="10"/>
	<rect x="100" y="90.22" class="st1" width="10" height="10"/>
	<rect x="100" y="100.22" class="st0" width="10" height="10"/>
	<rect x="100" y="110.22" class="st1" width="10" height="10"/>
	<rect x="100" y="120.22" class="st0" width="10" height="10"/>
	<rect x="100" y="130.22" class="st1" width="10" height="10"/>
	<rect x="100" y="140.22" class="st0" width="10" height="10"/>
	<rect x="100" y="150.22" class="st1" width="10" height="10"/>
	<rect x="110" y="150.22" class="st0" width="10" height="10"/>
	<rect x="110" y="0.22" class="st1" width="10" height="10"/>
	<rect x="110" y="10.22" class="st0" width="10" height="10"/>
	<rect x="110" y="20.22" class="st1" width="10" height="10"/>
	<rect x="110" y="30.22" class="st0" width="10" height="10"/>
	<rect x="110" y="40.22" class="st1" width="10" height="10"/>
	<rect x="110" y="50.22" class="st0" width="10" height="10"/>
	<rect x="110" y="60.22" class="st1" width="10" height="10"/>
	<rect x="110" y="70.22" class="st0" width="10" height="10"/>
	<rect x="110" y="80.22" class="st1" width="10" height="10"/>
	<rect x="110" y="90.22" class="st0" width="10" height="10"/>
	<rect x="110" y="100.22" class="st1" width="10" height="10"/>
	<rect x="110" y="110.22" class="st0" width="10" height="10"/>
	<rect x="110" y="120.22" class="st1" width="10" height="10"/>
	<rect x="110" y="130.22" class="st0" width="10" height="10"/>
	<rect x="110" y="140.22" class="st1" width="10" height="10"/>
	<rect x="120" y="0.22" class="st0" width="10" height="10"/>
	<rect x="120" y="10.22" class="st1" width="10" height="10"/>
	<rect x="120" y="20.22" class="st0" width="10" height="10"/>
	<rect x="120" y="30.22" class="st1" width="10" height="10"/>
	<rect x="120" y="40.22" class="st0" width="10" height="10"/>
	<rect x="120" y="50.22" class="st1" width="10" height="10"/>
	<rect x="120" y="60.22" class="st0" width="10" height="10"/>
	<rect x="120" y="70.22" class="st1" width="10" height="10"/>
	<rect x="120" y="80.22" class="st0" width="10" height="10"/>
	<rect x="120" y="90.22" class="st1" width="10" height="10"/>
	<rect x="120" y="100.22" class="st0" width="10" height="10"/>
	<rect x="120" y="110.22" class="st1" width="10" height="10"/>
	<rect x="120" y="120.22" class="st0" width="10" height="10"/>
	<rect x="120" y="130.22" class="st1" width="10" height="10"/>
	<rect x="120" y="140.22" class="st0" width="10" height="10"/>
	<rect x="120" y="150.22" class="st1" width="10" height="10"/>
	<rect x="130" y="150.22" class="st0" width="10" height="10"/>
	<rect x="130" y="0.22" class="st1" width="10" height="10"/>
	<rect x="130" y="10.22" class="st0" width="10" height="10"/>
	<rect x="130" y="20.22" class="st1" width="10" height="10"/>
	<rect x="130" y="30.22" class="st0" width="10" height="10"/>
	<rect x="130" y="40.22" class="st1" width="10" height="10"/>
	<rect x="130" y="50.22" class="st0" width="10" height="10"/>
	<rect x="130" y="60.22" class="st1" width="10" height="10"/>
	<rect x="130" y="70.22" class="st0" width="10" height="10"/>
	<rect x="130" y="80.22" class="st1" width="10" height="10"/>
	<rect x="130" y="90.22" class="st0" width="10" height="10"/>
	<rect x="130" y="100.22" class="st1" width="10" height="10"/>
	<rect x="130" y="110.22" class="st0" width="10" height="10"/>
	<rect x="130" y="120.22" class="st1" width="10" height="10"/>
	<rect x="130" y="130.22" class="st0" width="10" height="10"/>
	<rect x="130" y="140.22" class="st1" width="10" height="10"/>
	<rect x="140" y="0.22" class="st0" width="10" height="10"/>
	<rect x="140" y="10.22" class="st1" width="10" height="10"/>
	<rect x="140" y="20.22" class="st0" width="10" height="10"/>
	<rect x="140" y="30.22" class="st1" width="10" height="10"/>
	<rect x="140" y="40.22" class="st0" width="10" height="10"/>
	<rect x="140" y="50.22" class="st1" width="10" height="10"/>
	<rect x="140" y="60.22" class="st0" width="10" height="10"/>
	<rect x="140" y="70.22" class="st1" width="10" height="10"/>
	<rect x="140" y="80.22" class="st0" width="10" height="10"/>
	<rect x="140" y="90.22" class="st1" width="10" height="10"/>
	<rect x="140" y="100.22" class="st0" width="10" height="10"/>
	<rect x="140" y="110.22" class="st1" width="10" height="10"/>
	<rect x="140" y="120.22" class="st0" width="10" height="10"/>
	<rect x="140" y="130.22" class="st1" width="10" height="10"/>
	<rect x="140" y="140.22" class="st0" width="10" height="10"/>
	<rect x="140" y="150.22" class="st1" width="10" height="10"/>
	<rect x="150" y="150.22" class="st0" width="10" height="10"/>
	<rect x="150" y="0.22" class="st1" width="10" height="10"/>
	<rect x="150" y="10.22" class="st0" width="10" height="10"/>
	<rect x="150" y="20.22" class="st1" width="10" height="10"/>
	<rect x="150" y="30.22" class="st0" width="10" height="10"/>
	<rect x="150" y="40.22" class="st1" width="10" height="10"/>
	<rect x="150" y="50.22" class="st0" width="10" height="10"/>
	<rect x="150" y="60.22" class="st1" width="10" height="10"/>
	<rect x="150" y="70.22" class="st0" width="10" height="10"/>
	<rect x="150" y="80.22" class="st1" width="10" height="10"/>
	<rect x="150" y="90.22" class="st0" width="10" height="10"/>
	<rect x="150" y="100.22" class="st1" width="10" height="10"/>
	<rect x="150" y="110.22" class="st0" width="10" height="10"/>
	<rect x="150" y="120.22" class="st1" width="10" height="10"/>
	<rect x="150" y="130.22" class="st0" width="10" height="10"/>
	<rect x="150" y="140.22" class="st1" width="10" height="10"/>
</g>
<g id="Calque_2">
	<rect x="0" y="0" width="0" height="0"/>
	<rect x="0" y="160" width="0" height="0"/>
	<rect x="160" y="0" width="0" height="0"/>
	<rect x="160" y="160" width="0" height="0"/>
</g>
</svg>
