<?xml version="1.0" encoding="utf-8"?>
<!-- Generator: Adobe Illustrator 26.0.1, SVG Export Plug-In . SVG Version: 6.00 Build 0)  -->
<svg version="1.1" xmlns="http://www.w3.org/2000/svg" xmlns:xlink="http://www.w3.org/1999/xlink" x="0px" y="0px"
	 viewBox="0 0 160 160" style="enable-background:new 0 0 160 160;" xml:space="preserve">
<style type="text/css">
	.st0{display:none;}
	.st1{display:inline;fill:#706F6F;}
	.st2{display:inline;fill:#B2B2B2;}
	.st3{fill:#76160E;}
	.st4{fill:#761610;}
	.st5{fill:#B61917;}
	.st6{fill:#B51C1A;}
	.st7{fill:#FFFFFF;}
	.st8{fill:#E52421;}
	.st9{fill:#B51E1C;}
</style>
<g id="Calque_1" class="st0">
	<rect class="st1" width="10" height="10"/>
	<rect x="0" y="10" class="st2" width="10" height="10"/>
	<rect y="20" class="st1" width="10" height="10"/>
	<rect x="0" y="30" class="st2" width="10" height="10"/>
	<rect x="0" y="40" class="st1" width="10" height="10"/>
	<rect y="50" class="st2" width="10" height="10"/>
	<rect x="0" y="60" class="st1" width="10" height="10"/>
	<rect x="0" y="70" class="st2" width="10" height="10"/>
	<rect x="0" y="80" class="st1" width="10" height="10"/>
	<rect x="0" y="90" class="st2" width="10" height="10"/>
	<rect x="0" y="100" class="st1" width="10" height="10"/>
	<rect x="0" y="110" class="st2" width="10" height="10"/>
	<rect x="0" y="120" class="st1" width="10" height="10"/>
	<rect x="0" y="130" class="st2" width="10" height="10"/>
	<rect x="0" y="140" class="st1" width="10" height="10"/>
	<rect y="150" class="st2" width="10" height="10"/>
	<rect x="10" y="150" class="st1" width="10" height="10"/>
	<rect x="10" class="st2" width="10" height="10"/>
	<rect x="10" y="10" class="st1" width="10" height="10"/>
	<rect x="10" y="20" class="st2" width="10" height="10"/>
	<rect x="10" y="30" class="st1" width="10" height="10"/>
	<rect x="10" y="40" class="st2" width="10" height="10"/>
	<rect x="10" y="50" class="st1" width="10" height="10"/>
	<rect x="10" y="60" class="st2" width="10" height="10"/>
	<rect x="10" y="70" class="st1" width="10" height="10"/>
	<rect x="10" y="80" class="st2" width="10" height="10"/>
	<rect x="10" y="90" class="st1" width="10" height="10"/>
	<rect x="10" y="100" class="st2" width="10" height="10"/>
	<rect x="10" y="110" class="st1" width="10" height="10"/>
	<rect x="10" y="120" class="st2" width="10" height="10"/>
	<rect x="10" y="130" class="st1" width="10" height="10"/>
	<rect x="10" y="140" class="st2" width="10" height="10"/>
	<rect x="20" y="0" class="st1" width="10" height="10"/>
	<rect x="20" y="10" class="st2" width="10" height="10"/>
	<rect x="20" y="20" class="st1" width="10" height="10"/>
	<rect x="20" y="30" class="st2" width="10" height="10"/>
	<rect x="20" y="40" class="st1" width="10" height="10"/>
	<rect x="20" y="50" class="st2" width="10" height="10"/>
	<rect x="20" y="60" class="st1" width="10" height="10"/>
	<rect x="20" y="70" class="st2" width="10" height="10"/>
	<rect x="20" y="80" class="st1" width="10" height="10"/>
	<rect x="20" y="90" class="st2" width="10" height="10"/>
	<rect x="20" y="100" class="st1" width="10" height="10"/>
	<rect x="20" y="110" class="st2" width="10" height="10"/>
	<rect x="20" y="120" class="st1" width="10" height="10"/>
	<rect x="20" y="130" class="st2" width="10" height="10"/>
	<rect x="20" y="140" class="st1" width="10" height="10"/>
	<rect x="20" y="150" class="st2" width="10" height="10"/>
	<rect x="30" y="150" class="st1" width="10" height="10"/>
	<rect x="30" y="0" class="st2" width="10" height="10"/>
	<rect x="30" y="10" class="st1" width="10" height="10"/>
	<rect x="30" y="20" class="st2" width="10" height="10"/>
	<rect x="30" y="30" class="st1" width="10" height="10"/>
	<rect x="30" y="40" class="st2" width="10" height="10"/>
	<rect x="30" y="50" class="st1" width="10" height="10"/>
	<rect x="30" y="60" class="st2" width="10" height="10"/>
	<rect x="30" y="70" class="st1" width="10" height="10"/>
	<rect x="30" y="80" class="st2" width="10" height="10"/>
	<rect x="30" y="90" class="st1" width="10" height="10"/>
	<rect x="30" y="100" class="st2" width="10" height="10"/>
	<rect x="30" y="110" class="st1" width="10" height="10"/>
	<rect x="30" y="120" class="st2" width="10" height="10"/>
	<rect x="30" y="130" class="st1" width="10" height="10"/>
	<rect x="30" y="140" class="st2" width="10" height="10"/>
	<rect x="40" class="st1" width="10" height="10"/>
	<rect x="40" y="10" class="st2" width="10" height="10"/>
	<rect x="40" y="20" class="st1" width="10" height="10"/>
	<rect x="40" y="30" class="st2" width="10" height="10"/>
	<rect x="40" y="40" class="st1" width="10" height="10"/>
	<rect x="40" y="50" class="st2" width="10" height="10"/>
	<rect x="40" y="60" class="st1" width="10" height="10"/>
	<rect x="40" y="70" class="st2" width="10" height="10"/>
	<rect x="40" y="80" class="st1" width="10" height="10"/>
	<rect x="40" y="90" class="st2" width="10" height="10"/>
	<rect x="40" y="100" class="st1" width="10" height="10"/>
	<rect x="40" y="110" class="st2" width="10" height="10"/>
	<rect x="40" y="120" class="st1" width="10" height="10"/>
	<rect x="40" y="130" class="st2" width="10" height="10"/>
	<rect x="40" y="140" class="st1" width="10" height="10"/>
	<rect x="40" y="150" class="st2" width="10" height="10"/>
	<rect x="50" y="150" class="st1" width="10" height="10"/>
	<rect x="50" class="st2" width="10" height="10"/>
	<rect x="50" y="10" class="st1" width="10" height="10"/>
	<rect x="50" y="20" class="st2" width="10" height="10"/>
	<rect x="50" y="30" class="st1" width="10" height="10"/>
	<rect x="50" y="40" class="st2" width="10" height="10"/>
	<rect x="50" y="50" class="st1" width="10" height="10"/>
	<rect x="50" y="60" class="st2" width="10" height="10"/>
	<rect x="50" y="70" class="st1" width="10" height="10"/>
	<rect x="50" y="80" class="st2" width="10" height="10"/>
	<rect x="50" y="90" class="st1" width="10" height="10"/>
	<rect x="50" y="100" class="st2" width="10" height="10"/>
	<rect x="50" y="110" class="st1" width="10" height="10"/>
	<rect x="50" y="120" class="st2" width="10" height="10"/>
	<rect x="50" y="130" class="st1" width="10" height="10"/>
	<rect x="50" y="140" class="st2" width="10" height="10"/>
	<rect x="60" y="0" class="st1" width="10" height="10"/>
	<rect x="60" y="10" class="st2" width="10" height="10"/>
	<rect x="60" y="20" class="st1" width="10" height="10"/>
	<rect x="60" y="30" class="st2" width="10" height="10"/>
	<rect x="60" y="40" class="st1" width="10" height="10"/>
	<rect x="60" y="50" class="st2" width="10" height="10"/>
	<rect x="60" y="60" class="st1" width="10" height="10"/>
	<rect x="60" y="70" class="st2" width="10" height="10"/>
	<rect x="60" y="80" class="st1" width="10" height="10"/>
	<rect x="60" y="90" class="st2" width="10" height="10"/>
	<rect x="60" y="100" class="st1" width="10" height="10"/>
	<rect x="60" y="110" class="st2" width="10" height="10"/>
	<rect x="60" y="120" class="st1" width="10" height="10"/>
	<rect x="60" y="130" class="st2" width="10" height="10"/>
	<rect x="60" y="140" class="st1" width="10" height="10"/>
	<rect x="60" y="150" class="st2" width="10" height="10"/>
	<rect x="70" y="150" class="st1" width="10" height="10"/>
	<rect x="70" y="0" class="st2" width="10" height="10"/>
	<rect x="70" y="10" class="st1" width="10" height="10"/>
	<rect x="70" y="20" class="st2" width="10" height="10"/>
	<rect x="70" y="30" class="st1" width="10" height="10"/>
	<rect x="70" y="40" class="st2" width="10" height="10"/>
	<rect x="70" y="50" class="st1" width="10" height="10"/>
	<rect x="70" y="60" class="st2" width="10" height="10"/>
	<rect x="70" y="70" class="st1" width="10" height="10"/>
	<rect x="70" y="80" class="st2" width="10" height="10"/>
	<rect x="70" y="90" class="st1" width="10" height="10"/>
	<rect x="70" y="100" class="st2" width="10" height="10"/>
	<rect x="70" y="110" class="st1" width="10" height="10"/>
	<rect x="70" y="120" class="st2" width="10" height="10"/>
	<rect x="70" y="130" class="st1" width="10" height="10"/>
	<rect x="70" y="140" class="st2" width="10" height="10"/>
	<rect x="80" y="0.22" class="st1" width="10" height="10"/>
	<rect x="80" y="10.22" class="st2" width="10" height="10"/>
	<rect x="80" y="20.22" class="st1" width="10" height="10"/>
	<rect x="80" y="30.22" class="st2" width="10" height="10"/>
	<rect x="80" y="40.22" class="st1" width="10" height="10"/>
	<rect x="80" y="50.22" class="st2" width="10" height="10"/>
	<rect x="80" y="60.22" class="st1" width="10" height="10"/>
	<rect x="80" y="70.22" class="st2" width="10" height="10"/>
	<rect x="80" y="80.22" class="st1" width="10" height="10"/>
	<rect x="80" y="90.22" class="st2" width="10" height="10"/>
	<rect x="80" y="100.22" class="st1" width="10" height="10"/>
	<rect x="80" y="110.22" class="st2" width="10" height="10"/>
	<rect x="80" y="120.22" class="st1" width="10" height="10"/>
	<rect x="80" y="130.22" class="st2" width="10" height="10"/>
	<rect x="80" y="140.22" class="st1" width="10" height="10"/>
	<rect x="80" y="150.22" class="st2" width="10" height="10"/>
	<rect x="90" y="150.22" class="st1" width="10" height="10"/>
	<rect x="90" y="0.22" class="st2" width="10" height="10"/>
	<rect x="90" y="10.22" class="st1" width="10" height="10"/>
	<rect x="90" y="20.22" class="st2" width="10" height="10"/>
	<rect x="90" y="30.22" class="st1" width="10" height="10"/>
	<rect x="90" y="40.22" class="st2" width="10" height="10"/>
	<rect x="90" y="50.22" class="st1" width="10" height="10"/>
	<rect x="90" y="60.22" class="st2" width="10" height="10"/>
	<rect x="90" y="70.22" class="st1" width="10" height="10"/>
	<rect x="90" y="80.22" class="st2" width="10" height="10"/>
	<rect x="90" y="90.22" class="st1" width="10" height="10"/>
	<rect x="90" y="100.22" class="st2" width="10" height="10"/>
	<rect x="90" y="110.22" class="st1" width="10" height="10"/>
	<rect x="90" y="120.22" class="st2" width="10" height="10"/>
	<rect x="90" y="130.22" class="st1" width="10" height="10"/>
	<rect x="90" y="140.22" class="st2" width="10" height="10"/>
	<rect x="100" y="0.22" class="st1" width="10" height="10"/>
	<rect x="100" y="10.22" class="st2" width="10" height="10"/>
	<rect x="100" y="20.22" class="st1" width="10" height="10"/>
	<rect x="100" y="30.22" class="st2" width="10" height="10"/>
	<rect x="100" y="40.22" class="st1" width="10" height="10"/>
	<rect x="100" y="50.22" class="st2" width="10" height="10"/>
	<rect x="100" y="60.22" class="st1" width="10" height="10"/>
	<rect x="100" y="70.22" class="st2" width="10" height="10"/>
	<rect x="100" y="80.22" class="st1" width="10" height="10"/>
	<rect x="100" y="90.22" class="st2" width="10" height="10"/>
	<rect x="100" y="100.22" class="st1" width="10" height="10"/>
	<rect x="100" y="110.22" class="st2" width="10" height="10"/>
	<rect x="100" y="120.22" class="st1" width="10" height="10"/>
	<rect x="100" y="130.22" class="st2" width="10" height="10"/>
	<rect x="100" y="140.22" class="st1" width="10" height="10"/>
	<rect x="100" y="150.22" class="st2" width="10" height="10"/>
	<rect x="110" y="150.22" class="st1" width="10" height="10"/>
	<rect x="110" y="0.22" class="st2" width="10" height="10"/>
	<rect x="110" y="10.22" class="st1" width="10" height="10"/>
	<rect x="110" y="20.22" class="st2" width="10" height="10"/>
	<rect x="110" y="30.22" class="st1" width="10" height="10"/>
	<rect x="110" y="40.22" class="st2" width="10" height="10"/>
	<rect x="110" y="50.22" class="st1" width="10" height="10"/>
	<rect x="110" y="60.22" class="st2" width="10" height="10"/>
	<rect x="110" y="70.22" class="st1" width="10" height="10"/>
	<rect x="110" y="80.22" class="st2" width="10" height="10"/>
	<rect x="110" y="90.22" class="st1" width="10" height="10"/>
	<rect x="110" y="100.22" class="st2" width="10" height="10"/>
	<rect x="110" y="110.22" class="st1" width="10" height="10"/>
	<rect x="110" y="120.22" class="st2" width="10" height="10"/>
	<rect x="110" y="130.22" class="st1" width="10" height="10"/>
	<rect x="110" y="140.22" class="st2" width="10" height="10"/>
	<rect x="120" y="0.22" class="st1" width="10" height="10"/>
	<rect x="120" y="10.22" class="st2" width="10" height="10"/>
	<rect x="120" y="20.22" class="st1" width="10" height="10"/>
	<rect x="120" y="30.22" class="st2" width="10" height="10"/>
	<rect x="120" y="40.22" class="st1" width="10" height="10"/>
	<rect x="120" y="50.22" class="st2" width="10" height="10"/>
	<rect x="120" y="60.22" class="st1" width="10" height="10"/>
	<rect x="120" y="70.22" class="st2" width="10" height="10"/>
	<rect x="120" y="80.22" class="st1" width="10" height="10"/>
	<rect x="120" y="90.22" class="st2" width="10" height="10"/>
	<rect x="120" y="100.22" class="st1" width="10" height="10"/>
	<rect x="120" y="110.22" class="st2" width="10" height="10"/>
	<rect x="120" y="120.22" class="st1" width="10" height="10"/>
	<rect x="120" y="130.22" class="st2" width="10" height="10"/>
	<rect x="120" y="140.22" class="st1" width="10" height="10"/>
	<rect x="120" y="150.22" class="st2" width="10" height="10"/>
	<rect x="130" y="150.22" class="st1" width="10" height="10"/>
	<rect x="130" y="0.22" class="st2" width="10" height="10"/>
	<rect x="130" y="10.22" class="st1" width="10" height="10"/>
	<rect x="130" y="20.22" class="st2" width="10" height="10"/>
	<rect x="130" y="30.22" class="st1" width="10" height="10"/>
	<rect x="130" y="40.22" class="st2" width="10" height="10"/>
	<rect x="130" y="50.22" class="st1" width="10" height="10"/>
	<rect x="130" y="60.22" class="st2" width="10" height="10"/>
	<rect x="130" y="70.22" class="st1" width="10" height="10"/>
	<rect x="130" y="80.22" class="st2" width="10" height="10"/>
	<rect x="130" y="90.22" class="st1" width="10" height="10"/>
	<rect x="130" y="100.22" class="st2" width="10" height="10"/>
	<rect x="130" y="110.22" class="st1" width="10" height="10"/>
	<rect x="130" y="120.22" class="st2" width="10" height="10"/>
	<rect x="130" y="130.22" class="st1" width="10" height="10"/>
	<rect x="130" y="140.22" class="st2" width="10" height="10"/>
	<rect x="140" y="0.22" class="st1" width="10" height="10"/>
	<rect x="140" y="10.22" class="st2" width="10" height="10"/>
	<rect x="140" y="20.22" class="st1" width="10" height="10"/>
	<rect x="140" y="30.22" class="st2" width="10" height="10"/>
	<rect x="140" y="40.22" class="st1" width="10" height="10"/>
	<rect x="140" y="50.22" class="st2" width="10" height="10"/>
	<rect x="140" y="60.22" class="st1" width="10" height="10"/>
	<rect x="140" y="70.22" class="st2" width="10" height="10"/>
	<rect x="140" y="80.22" class="st1" width="10" height="10"/>
	<rect x="140" y="90.22" class="st2" width="10" height="10"/>
	<rect x="140" y="100.22" class="st1" width="10" height="10"/>
	<rect x="140" y="110.22" class="st2" width="10" height="10"/>
	<rect x="140" y="120.22" class="st1" width="10" height="10"/>
	<rect x="140" y="130.22" class="st2" width="10" height="10"/>
	<rect x="140" y="140.22" class="st1" width="10" height="10"/>
	<rect x="140" y="150.22" class="st2" width="10" height="10"/>
	<rect x="150" y="150.22" class="st1" width="10" height="10"/>
	<rect x="150" y="0.22" class="st2" width="10" height="10"/>
	<rect x="150" y="10.22" class="st1" width="10" height="10"/>
	<rect x="150" y="20.22" class="st2" width="10" height="10"/>
	<rect x="150" y="30.22" class="st1" width="10" height="10"/>
	<rect x="150" y="40.22" class="st2" width="10" height="10"/>
	<rect x="150" y="50.22" class="st1" width="10" height="10"/>
	<rect x="150" y="60.22" class="st2" width="10" height="10"/>
	<rect x="150" y="70.22" class="st1" width="10" height="10"/>
	<rect x="150" y="80.22" class="st2" width="10" height="10"/>
	<rect x="150" y="90.22" class="st1" width="10" height="10"/>
	<rect x="150" y="100.22" class="st2" width="10" height="10"/>
	<rect x="150" y="110.22" class="st1" width="10" height="10"/>
	<rect x="150" y="120.22" class="st2" width="10" height="10"/>
	<rect x="150" y="130.22" class="st1" width="10" height="10"/>
	<rect x="150" y="140.22" class="st2" width="10" height="10"/>
</g>
<g id="Calque_2">
	<rect x="0" y="0" width="0" height="0"/>
	<rect x="0" y="160" width="0" height="0"/>
	<rect x="160" y="0" width="0" height="0"/>
	<rect x="160" y="160" width="0" height="0"/>
</g>
<g id="Calque_3">
	<rect x="19.85" y="60" class="st3" width="10.01" height="29.99"/>
	<rect x="19.85" y="70" class="st3" width="10.01" height="10"/>
	<rect x="19.85" y="80" class="st4" width="10.01" height="10"/>
	<rect x="29.86" y="50" class="st5" width="10.01" height="10"/>
	<rect x="29.86" y="60" class="st5" width="10.01" height="10"/>
	<rect x="29.86" y="70" class="st5" width="10.01" height="10"/>
	<rect x="29.86" y="80" class="st5" width="10.01" height="10"/>
	<rect x="29.86" y="90" class="st5" width="10.01" height="10"/>
	<rect x="29.86" y="100" class="st3" width="20.02" height="30"/>
	<rect x="29.86" y="110" class="st3" width="10.01" height="10"/>
	<rect x="29.86" y="120" class="st4" width="10.01" height="10"/>
	<rect x="39.87" y="50" class="st5" width="10.01" height="10"/>
	<rect x="39.87" y="60" class="st5" width="10.01" height="10"/>
	<rect x="39.87" y="70" class="st5" width="10.01" height="10"/>
	<rect x="39.87" y="80" class="st5" width="10.01" height="10"/>
	<rect x="39.87" y="90" class="st6" width="10.01" height="10"/>
	<rect x="39.87" y="100" class="st3" width="10.01" height="10"/>
	<rect x="39.87" y="110" class="st3" width="10.01" height="10"/>
	<rect x="39.87" y="120" class="st3" width="20.02" height="20"/>
	<rect x="39.87" y="130" class="st3" width="10.01" height="10"/>
	<rect x="29.86" y="50" class="st6" width="30.03" height="50"/>
	<rect x="49.89" y="60" class="st6" width="10.01" height="10"/>
	<rect x="49.89" y="70" class="st6" width="10.01" height="10"/>
	<rect x="49.89" y="80" class="st6" width="10.01" height="10"/>
	<rect x="49.89" y="90" class="st6" width="10.01" height="10"/>
	<rect x="49.89" y="100" class="st7" width="10.01" height="10"/>
	<rect x="49.89" y="120" class="st3" width="10.01" height="10"/>
	<rect x="49.89" y="130" class="st3" width="10.01" height="10"/>
	<rect x="59.9" y="50" class="st7" width="60.06" height="50"/>
	<rect x="59.9" y="60" class="st7" width="10.01" height="10"/>
	<rect x="59.9" y="70" class="st7" width="10.01" height="10"/>
	<rect x="59.9" y="80" class="st7" width="10.01" height="10"/>
	<rect x="59.9" y="90" class="st7" width="10.01" height="10"/>
	<rect x="69.91" y="50" class="st7" width="10.01" height="10"/>
	<rect x="69.91" y="60" class="st7" width="10.01" height="10"/>
	<rect x="69.91" y="70" class="st7" width="10.01" height="10"/>
	<rect x="69.91" y="80" class="st7" width="10.01" height="10"/>
	<rect x="69.91" y="90" class="st7" width="10.01" height="10"/>
	<rect x="79.92" y="40" class="st7" width="10.01" height="10"/>
	<rect x="79.92" y="50" class="st7" width="10.01" height="10"/>
	<rect x="79.92" y="60" class="st7" width="10.01" height="10"/>
	<rect x="79.92" y="70" class="st7" width="10.01" height="10"/>
	<rect x="79.92" y="80" class="st7" width="10.01" height="10"/>
	<rect x="79.92" y="90" class="st7" width="10.01" height="10"/>
	<rect x="79.92" y="40.22" class="st7" width="40.04" height="69.78"/>
	<rect x="89.93" y="40" class="st7" width="10.01" height="10"/>
	<rect x="89.93" y="50" class="st7" width="10.01" height="10"/>
	<rect x="89.93" y="60" class="st7" width="10.01" height="10"/>
	<rect x="89.93" y="70" class="st7" width="10.01" height="10"/>
	<rect x="89.93" y="80" class="st7" width="10.01" height="10"/>
	<rect x="89.93" y="90" class="st7" width="10.01" height="10"/>
	<rect x="89.93" y="100" class="st7" width="10.01" height="10"/>
	<rect x="99.94" y="30" class="st7" width="20.02" height="89.99"/>
	<rect x="99.94" y="40" class="st7" width="10.01" height="10"/>
	<rect x="99.94" y="50" class="st7" width="10.01" height="10"/>
	<rect x="99.94" y="60" class="st7" width="10.01" height="10"/>
	<rect x="99.94" y="70" class="st7" width="10.01" height="10"/>
	<rect x="99.94" y="80" class="st7" width="10.01" height="10"/>
	<rect x="99.94" y="90" class="st7" width="10.01" height="10"/>
	<rect x="99.94" y="100" class="st7" width="10.01" height="10"/>
	<rect x="99.94" y="110" class="st7" width="10.01" height="10"/>
	<rect x="119.96" y="20" class="st8" width="10.01" height="110.22"/>
	<rect x="119.96" y="30" class="st8" width="10.01" height="10"/>
	<rect x="119.96" y="40" class="st8" width="10.01" height="10"/>
	<rect x="119.96" y="50" class="st8" width="10.01" height="10"/>
	<rect x="119.96" y="60" class="st8" width="10.01" height="10"/>
	<rect x="119.96" y="69.99" class="st8" width="10.01" height="10"/>
	<rect x="119.96" y="80" class="st8" width="10.01" height="10"/>
	<rect x="119.96" y="90" class="st8" width="10.01" height="10"/>
	<rect x="119.96" y="100" class="st8" width="10.01" height="10"/>
	<rect x="119.96" y="110" class="st8" width="10.01" height="10"/>
	<rect x="119.96" y="120" class="st8" width="10.01" height="10"/>
	<rect x="129.97" y="60" class="st9" width="10.01" height="30"/>
	<rect x="129.97" y="69.99" class="st9" width="10.01" height="10"/>
	<rect x="129.97" y="79.99" class="st9" width="10.01" height="10"/>
	<rect x="109.95" y="20" class="st7" width="10.01" height="109.99"/>
	<rect x="109.95" y="30" class="st7" width="10.01" height="10"/>
	<rect x="109.95" y="40" class="st7" width="10.01" height="10"/>
	<rect x="109.95" y="50" class="st7" width="10.01" height="10"/>
	<rect x="109.95" y="60" class="st7" width="10.01" height="10"/>
	<rect x="109.95" y="70" class="st7" width="10.01" height="10"/>
	<rect x="109.95" y="80" class="st7" width="10.01" height="10"/>
	<rect x="109.95" y="90" class="st7" width="10.01" height="10"/>
	<rect x="109.95" y="100" class="st7" width="10.01" height="10"/>
	<rect x="109.95" y="110" class="st7" width="10.01" height="10"/>
	<rect x="109.95" y="120" class="st7" width="10.01" height="10"/>
	<rect x="-0.17" y="0" width="0" height="0"/>
	<rect x="-0.17" y="160" width="0" height="0"/>
	<rect x="160" y="0" width="0" height="0"/>
	<rect x="160" y="160" width="0" height="0"/>
</g>
</svg>
